<?xml version="1.0" encoding="utf-8"?>
<!-- Generator: Adobe Illustrator 24.0.2, SVG Export Plug-In . SVG Version: 6.00 Build 0)  -->
<svg version="1.1" id="Слой_1" xmlns="http://www.w3.org/2000/svg" xmlns:xlink="http://www.w3.org/1999/xlink" x="0px" y="0px"
	 viewBox="0 0 1080 626" style="enable-background:new 0 0 1080 626;" xml:space="preserve">
<style type="text/css">
	.st0{fill-rule:evenodd;clip-rule:evenodd;fill:#C82D29;}
	.st1{fill-rule:evenodd;clip-rule:evenodd;fill:#7FB918;}
	.st2{fill-rule:evenodd;clip-rule:evenodd;fill:#FFFFFF;}
</style>
<path class="st0" d="M61.73,184.22c282.45,0,564.9,0,847.35,0c0,126.58,0,253.16,0,379.74c0,27.96-22.67,50.63-50.63,50.63H61.73
	c-27.96,0-50.63-22.67-50.63-50.63V234.85C11.1,206.89,33.77,184.22,61.73,184.22z"/>
<path class="st1" d="M1014.34,138.39c16.77-22.47,25.26-61.68,11.97-126.62C859.06,37.62,895.02,128.19,910.93,156.41
	c19.95-32.63,60.16-81.06,86.55-104.72c-17.33,25.21-43.21,67.44-57.59,102.04C962.46,127.9,988.9,126.42,1014.34,138.39
	L1014.34,138.39z M1067,191.39c-73.29,82.65-112.63,36.91-127.24,12.06c22.78-7.53,46.76-10.77,70.73-9.57
	c-24.21-7.46-49.52-10.65-74.82-9.44C944.56,162.93,981.2,99.85,1067,191.39z"/>
<path class="st2" d="M522.93,278.74h22.01v22.01h-22.01V278.74L522.93,278.74z M207.42,416.74l54.69-138h36.41l-84.08,198.1
	c-12.33,29.05-28.54,41.92-58.35,43.15c-13.78,0.57-29.23-2.33-45.41-8.07v-27.78c28.4,8.36,32.08,9.3,42.24,9.11
	c13.8-0.26,25.49-7.4,38.77-38.49l-81.01-176.02h35.13L207.42,416.74L207.42,416.74z M446,519.95h-30.33v-64.12
	c-13.33,3.51-26.93,5.24-40.87,5.24c-42.59,0-67.9-21.92-68.24-65.35v-52.74h30.22v53.75c0,26.38,13.21,37.9,38.02,37.9
	c13.94,0,27.54-1.73,40.87-5.24v-86.07H446V519.95L446,519.95z M566.85,519.95c-56.66,0-84.1-37.17-84.1-88.96
	c0-45.18,29.32-87.67,80.23-87.67c63.43,0,75.48,46.35,75.48,96.7H510.73c0.86,31.05,23.24,55.18,57.08,55.18
	c20.45,0,36.32-6.79,49.1-21.97l19.16,13.86C620.68,508.99,597.58,519.95,566.85,519.95L566.85,519.95z M562.97,367.16
	c-29.58,0-47.82,23.23-51.19,48.99h98.68C610.46,389.76,592.59,367.16,562.97,367.16L562.97,367.16z M809.49,367.73h-59.32v152.21
	h-30.22V367.73H661.8v-24.42h147.7V367.73L809.49,367.73z M576.25,278.94h22.01v22.01h-22.01V278.94z"/>
</svg>
